# xmcd
#
# Track frame offsets: 
#        182
#        12957
#        24165
#        37435
#        48542
#        65520
#        77830
#        91160
#        102450
#        115987
#        129560
#        142627
#        155445
#        168760
#        179912
#        193575
#        205227
#        219355
#        229252
#        243620
#        252907
#        263910
#        277085
#        288600
#        301772
#
# Disc length: 4159 seconds
#
# Revision: 2
# Processed by: cddbd v1.5.2PL0 Copyright (c) Steve Scherf et al.
# Submitted via: ExactAudioCopy v0.99pb4
#
DISCID=6f103d19
DTITLE=Various Artist - The Sun Story - Sunrise - Vol. 1
DYEAR=1900
DGENRE=Blues
TTITLE0=Rocket 88 - Jackie Brenston
TTITLE1=T Model Boogie - Rosco Gordon
TTITLE2=Howlin' For My Baby - Howlin' Wolf
TTITLE3=Mr. Highway Man - Howlin' Wolf
TTITLE4=Treat Me Mean And Evil - Joe Hill Louis
TTITLE5=Prison Bound Blues - Willie Nix
TTITLE6=Tiger Man - Joe Hill Louis
TTITLE7=My Baby Left Me - Raymond Hill
TTITLE8=Sweet Home Chicago - Honeyboy Edwards
TTITLE9=Easy - Jimmy and Walter
TTITLE10=Bear Cat - Rufus Thomas
TTITLE11=Just Walking In The Rain - The Prisonaires
TTITLE12=Feelin' Good - Little Junior's Blue Flames
TTITLE13=Mystery Train - Little Junior's Blue Flames
TTITLE14=Cotton Crop Blues - James Cotton
TTITLE15=The Boogie Disease - Doctor Ross
TTITLE16=When It Rains It Pours - Billy The Kid Emerson
TTITLE17=So Long Baby Goodbye - Sammy Lewis and Willie Johnson Combo
TTITLE18=Rockin' Chair Daddy - Harmonica Frank
TTITLE19=My Kind Of Carryin' On - Doug Poindexter and The Starlite Wrang
TTITLE19=lers
TTITLE20=Cry Cry Cry - Johnny Cash
TTITLE21=Let The Jukebox Keep On Playing - Carl Perkins
TTITLE22=Defrost Your Heart - Charlie Feathers
TTITLE23=Warren Smith - Rock 'n' Roll Ruby
TTITLE24=Slow Down - Jack Earl and The Jimbos
EXTD=
EXTT0=
EXTT1=
EXTT2=
EXTT3=
EXTT4=
EXTT5=
EXTT6=
EXTT7=
EXTT8=
EXTT9=
EXTT10=
EXTT11=
EXTT12=
EXTT13=
EXTT14=
EXTT15=
EXTT16=
EXTT17=
EXTT18=
EXTT19=
EXTT20=
EXTT21=
EXTT22=
EXTT23=
EXTT24=
PLAYORDER=
